HIERARCHY
ROOT mixamorig:Hips
{
	OFFSET -0.000008 104.274872 1.554316
	CHANNELS 6 Xposition Yposition Zposition Xrotation Yrotation Zrotation
	JOINT mixamorig:Spine
	{
		OFFSET -0.000005 10.181595 0.131519
		CHANNELS 6 Xposition Yposition Zposition Xrotation Yrotation Zrotation
		JOINT mixamorig:Spine1
		{
			OFFSET -0.000000 9.893959 -1.470707
			CHANNELS 6 Xposition Yposition Zposition Xrotation Yrotation Zrotation
			JOINT mixamorig:Spine2
			{
				OFFSET -0.000000 9.220757 -1.370641
				CHANNELS 6 Xposition Yposition Zposition Xrotation Yrotation Zrotation
				JOINT mixamorig:Neck
				{
					OFFSET 0.000001 16.740417 -2.049036
					CHANNELS 6 Xposition Yposition Zposition Xrotation Yrotation Zrotation
					JOINT mixamorig:Head
					{
						OFFSET 0.000000 9.617874 1.685006
						CHANNELS 6 Xposition Yposition Zposition Xrotation Yrotation Zrotation
						JOINT mixamorig:HeadTop_End
						{
							OFFSET 0.000002 22.037354 7.501101
							CHANNELS 6 Xposition Yposition Zposition Xrotation Yrotation Zrotation
							End Site
							{
								OFFSET 0.000168 2310.654297 -282.823242
							}
						}
					}
				}
				JOINT mixamorig:RightShoulder
				{
					OFFSET -4.569970 11.014908 -2.160885
					CHANNELS 6 Xposition Yposition Zposition Xrotation Yrotation Zrotation
					JOINT mixamorig:RightArm
					{
						OFFSET -10.592851 -0.524811 -2.232101
						CHANNELS 6 Xposition Yposition Zposition Xrotation Yrotation Zrotation
						JOINT mixamorig:RightForeArm
						{
							OFFSET -27.841511 0.000031 -0.000004
							CHANNELS 6 Xposition Yposition Zposition Xrotation Yrotation Zrotation
							JOINT mixamorig:RightHand
							{
								OFFSET -28.328831 -0.000015 0.000015
								CHANNELS 6 Xposition Yposition Zposition Xrotation Yrotation Zrotation
								JOINT mixamorig:RightHandThumb1
								{
									OFFSET -2.464806 -1.573990 2.681852
									CHANNELS 6 Xposition Yposition Zposition Xrotation Yrotation Zrotation
									JOINT mixamorig:RightHandThumb2
									{
										OFFSET -3.215179 -1.872803 1.924282
										CHANNELS 6 Xposition Yposition Zposition Xrotation Yrotation Zrotation
										JOINT mixamorig:RightHandThumb3
										{
											OFFSET -2.654831 -1.527969 1.512609
											CHANNELS 6 Xposition Yposition Zposition Xrotation Yrotation Zrotation
											JOINT mixamorig:RightHandThumb4
											{
												OFFSET -2.018814 -1.152008 1.108052
												CHANNELS 6 Xposition Yposition Zposition Xrotation Yrotation Zrotation
												End Site
												{
													OFFSET -188.809540 -114.533607 132.431396
												}
											}
										}
									}
								}
								JOINT mixamorig:RightHandIndex1
								{
									OFFSET -9.108284 -0.517868 2.259835
									CHANNELS 6 Xposition Yposition Zposition Xrotation Yrotation Zrotation
									JOINT mixamorig:RightHandIndex2
									{
										OFFSET -3.699989 0.000000 0.001215
										CHANNELS 6 Xposition Yposition Zposition Xrotation Yrotation Zrotation
										JOINT mixamorig:RightHandIndex3
										{
											OFFSET -2.850006 0.000031 -0.000522
											CHANNELS 6 Xposition Yposition Zposition Xrotation Yrotation Zrotation
											JOINT mixamorig:RightHandIndex4
											{
												OFFSET -2.772186 -0.000015 -0.000020
												CHANNELS 6 Xposition Yposition Zposition Xrotation Yrotation Zrotation
												End Site
												{
													OFFSET -277.218445 0.000000 -0.050231
												}
											}
										}
									}
								}
								JOINT mixamorig:RightHandMiddle1
								{
									OFFSET -9.532516 -0.000031 -0.000023
									CHANNELS 6 Xposition Yposition Zposition Xrotation Yrotation Zrotation
									JOINT mixamorig:RightHandMiddle2
									{
										OFFSET -3.700005 -0.000015 0.003713
										CHANNELS 6 Xposition Yposition Zposition Xrotation Yrotation Zrotation
										JOINT mixamorig:RightHandMiddle3
										{
											OFFSET -2.949974 0.000015 -0.002054
											CHANNELS 6 Xposition Yposition Zposition Xrotation Yrotation Zrotation
											JOINT mixamorig:RightHandMiddle4
											{
												OFFSET -2.946640 0.000000 -0.000156
												CHANNELS 6 Xposition Yposition Zposition Xrotation Yrotation Zrotation
												End Site
												{
													OFFSET -294.664337 0.000000 -0.113670
												}
											}
										}
									}
								}
								JOINT mixamorig:RightHandRing1
								{
									OFFSET -9.103600 -0.043076 -1.865134
									CHANNELS 6 Xposition Yposition Zposition Xrotation Yrotation Zrotation
									JOINT mixamorig:RightHandRing2
									{
										OFFSET -3.379288 0.000000 -0.001055
										CHANNELS 6 Xposition Yposition Zposition Xrotation Yrotation Zrotation
										JOINT mixamorig:RightHandRing3
										{
											OFFSET -2.889687 -0.000015 0.000379
											CHANNELS 6 Xposition Yposition Zposition Xrotation Yrotation Zrotation
											JOINT mixamorig:RightHandRing4
											{
												OFFSET -2.638809 -0.000015 0.000941
												CHANNELS 6 Xposition Yposition Zposition Xrotation Yrotation Zrotation
												End Site
												{
													OFFSET -263.880371 0.000000 0.516020
												}
											}
										}
									}
								}
								JOINT mixamorig:RightHandPinky1
								{
									OFFSET -8.076683 -0.486710 -3.806280
									CHANNELS 6 Xposition Yposition Zposition Xrotation Yrotation Zrotation
									JOINT mixamorig:RightHandPinky2
									{
										OFFSET -3.600014 -0.000015 -0.003747
										CHANNELS 6 Xposition Yposition Zposition Xrotation Yrotation Zrotation
										JOINT mixamorig:RightHandPinky3
										{
											OFFSET -2.099983 0.000000 -0.005739
											CHANNELS 6 Xposition Yposition Zposition Xrotation Yrotation Zrotation
											JOINT mixamorig:RightHandPinky4
											{
												OFFSET -2.115768 -0.000031 -0.003680
												CHANNELS 6 Xposition Yposition Zposition Xrotation Yrotation Zrotation
												End Site
												{
													OFFSET -211.577087 0.000000 -0.350686
												}
											}
										}
									}
								}
							}
						}
					}
				}
				JOINT mixamorig:LeftShoulder
				{
					OFFSET 4.570447 11.014725 -2.160855
					CHANNELS 6 Xposition Yposition Zposition Xrotation Yrotation Zrotation
					JOINT mixamorig:LeftArm
					{
						OFFSET 10.592371 -0.524597 -2.232119
						CHANNELS 6 Xposition Yposition Zposition Xrotation Yrotation Zrotation
						JOINT mixamorig:LeftForeArm
						{
							OFFSET 27.841532 -0.000031 0.000026
							CHANNELS 6 Xposition Yposition Zposition Xrotation Yrotation Zrotation
							JOINT mixamorig:LeftHand
							{
								OFFSET 28.328846 -0.000061 0.000022
								CHANNELS 6 Xposition Yposition Zposition Xrotation Yrotation Zrotation
								JOINT mixamorig:LeftHandThumb1
								{
									OFFSET 2.466141 -1.576172 2.681732
									CHANNELS 6 Xposition Yposition Zposition Xrotation Yrotation Zrotation
									JOINT mixamorig:LeftHandThumb2
									{
										OFFSET 3.217812 -1.872070 1.916482
										CHANNELS 6 Xposition Yposition Zposition Xrotation Yrotation Zrotation
										JOINT mixamorig:LeftHandThumb3
										{
											OFFSET 2.656029 -1.528778 1.514513
											CHANNELS 6 Xposition Yposition Zposition Xrotation Yrotation Zrotation
											JOINT mixamorig:LeftHandThumb4
											{
												OFFSET 2.020889 -1.154053 1.115139
												CHANNELS 6 Xposition Yposition Zposition Xrotation Yrotation Zrotation
												End Site
												{
													OFFSET 190.885437 -115.081749 130.048782
												}
											}
										}
									}
								}
								JOINT mixamorig:LeftHandIndex1
								{
									OFFSET 9.109314 -0.518021 2.259871
									CHANNELS 6 Xposition Yposition Zposition Xrotation Yrotation Zrotation
									JOINT mixamorig:LeftHandIndex2
									{
										OFFSET 3.699989 0.000000 -0.000322
										CHANNELS 6 Xposition Yposition Zposition Xrotation Yrotation Zrotation
										JOINT mixamorig:LeftHandIndex3
										{
											OFFSET 2.850006 0.000000 0.000352
											CHANNELS 6 Xposition Yposition Zposition Xrotation Yrotation Zrotation
											JOINT mixamorig:LeftHandIndex4
											{
												OFFSET 2.774864 -0.000031 -0.000027
												CHANNELS 6 Xposition Yposition Zposition Xrotation Yrotation Zrotation
												End Site
												{
													OFFSET 277.486267 0.000000 -0.009857
												}
											}
										}
									}
								}
								JOINT mixamorig:LeftHandMiddle1
								{
									OFFSET 9.533394 0.000061 0.000044
									CHANNELS 6 Xposition Yposition Zposition Xrotation Yrotation Zrotation
									JOINT mixamorig:LeftHandMiddle2
									{
										OFFSET 3.699989 -0.000015 -0.000231
										CHANNELS 6 Xposition Yposition Zposition Xrotation Yrotation Zrotation
										JOINT mixamorig:LeftHandMiddle3
										{
											OFFSET 2.949997 -0.000015 -0.000059
											CHANNELS 6 Xposition Yposition Zposition Xrotation Yrotation Zrotation
											JOINT mixamorig:LeftHandMiddle4
											{
												OFFSET 2.952896 0.000031 0.000063
												CHANNELS 6 Xposition Yposition Zposition Xrotation Yrotation Zrotation
												End Site
												{
													OFFSET 295.289337 0.000000 0.022810
												}
											}
										}
									}
								}
								JOINT mixamorig:LeftHandRing1
								{
									OFFSET 9.104523 -0.042999 -1.865074
									CHANNELS 6 Xposition Yposition Zposition Xrotation Yrotation Zrotation
									JOINT mixamorig:LeftHandRing2
									{
										OFFSET 3.150009 -0.000031 0.000043
										CHANNELS 6 Xposition Yposition Zposition Xrotation Yrotation Zrotation
										JOINT mixamorig:LeftHandRing3
										{
											OFFSET 2.949982 -0.000015 0.000040
											CHANNELS 6 Xposition Yposition Zposition Xrotation Yrotation Zrotation
											JOINT mixamorig:LeftHandRing4
											{
												OFFSET 2.644348 0.000000 0.000057
												CHANNELS 6 Xposition Yposition Zposition Xrotation Yrotation Zrotation
												End Site
												{
													OFFSET 264.434631 0.000000 0.012105
												}
											}
										}
									}
								}
								JOINT mixamorig:LeftHandPinky1
								{
									OFFSET 8.077789 -0.486847 -3.806259
									CHANNELS 6 Xposition Yposition Zposition Xrotation Yrotation Zrotation
									JOINT mixamorig:LeftHandPinky2
									{
										OFFSET 3.599953 0.000031 0.014727
										CHANNELS 6 Xposition Yposition Zposition Xrotation Yrotation Zrotation
										JOINT mixamorig:LeftHandPinky3
										{
											OFFSET 2.100021 0.000015 0.007705
											CHANNELS 6 Xposition Yposition Zposition Xrotation Yrotation Zrotation
											JOINT mixamorig:LeftHandPinky4
											{
												OFFSET 2.125504 0.000031 0.007517
												CHANNELS 6 Xposition Yposition Zposition Xrotation Yrotation Zrotation
												End Site
												{
													OFFSET 212.550781 0.000000 0.625752
												}
											}
										}
									}
								}
							}
						}
					}
				}
			}
		}
	}
	JOINT mixamorig:RightUpLeg
	{
		OFFSET -8.207787 -6.751648 -1.599560
		CHANNELS 6 Xposition Yposition Zposition Xrotation Yrotation Zrotation
		JOINT mixamorig:RightLeg
		{
			OFFSET -0.000002 -44.370117 0.345942
			CHANNELS 6 Xposition Yposition Zposition Xrotation Yrotation Zrotation
			JOINT mixamorig:RightFoot
			{
				OFFSET 0.000003 -44.423679 -3.043532
				CHANNELS 6 Xposition Yposition Zposition Xrotation Yrotation Zrotation
				JOINT mixamorig:RightToeBase
				{
					OFFSET -0.000002 -8.728671 10.710558
					CHANNELS 6 Xposition Yposition Zposition Xrotation Yrotation Zrotation
					JOINT mixamorig:RightToe_End
					{
						OFFSET -0.000001 -0.000679 9.278119
						CHANNELS 6 Xposition Yposition Zposition Xrotation Yrotation Zrotation
						End Site
						{
							OFFSET 0.000000 -0.067690 927.812134
						}
					}
				}
			}
		}
	}
	JOINT mixamorig:LeftUpLeg
	{
		OFFSET 8.207793 -6.751686 -1.599556
		CHANNELS 6 Xposition Yposition Zposition Xrotation Yrotation Zrotation
		JOINT mixamorig:LeftLeg
		{
			OFFSET -0.000004 -44.370014 0.346954
			CHANNELS 6 Xposition Yposition Zposition Xrotation Yrotation Zrotation
			JOINT mixamorig:LeftFoot
			{
				OFFSET -0.000001 -44.423672 -3.044401
				CHANNELS 6 Xposition Yposition Zposition Xrotation Yrotation Zrotation
				JOINT mixamorig:LeftToeBase
				{
					OFFSET -0.000002 -8.728669 10.710558
					CHANNELS 6 Xposition Yposition Zposition Xrotation Yrotation Zrotation
					JOINT mixamorig:LeftToe_End
					{
						OFFSET -0.000003 -0.000679 9.278133
						CHANNELS 6 Xposition Yposition Zposition Xrotation Yrotation Zrotation
						End Site
						{
							OFFSET 0.000000 -0.068021 927.813477
						}
					}
				}
			}
		}
	}
}
MOTION
Frames: 3
Frame Time: 0.033333
0.000006 104.270477 1.554256 0.000010 0.000003 -0.000113 -0.000005 10.181587 0.131522 0.000001 -0.000003 0.000084 -0.000000 9.893967 -1.470711 0.000001 0.000000 -0.000000 -0.000000 9.220802 -1.370642 0.000000 -0.000000 -0.000000 0.000001 16.740433 -2.049030 0.000000 -0.000000 -0.000000 0.000000 9.617859 1.685014 0.000000 0.000000 0.000000 0.000002 22.037384 7.501101 0.000000 -0.000000 0.000000 -4.569968 11.014880 -2.160881 0.000008 0.000001 -0.000038 -10.592801 -0.524837 -2.231768 63.054838 63.556549 -41.617483 -27.841509 0.000001 0.000569 245.880690 70.752106 -264.762858 -28.328835 0.000008 0.000023 -0.000320 -0.000047 0.000006 -2.464702 -1.574190 2.682002 124.927315 -160.424382 164.286212 -3.214989 -1.873049 1.924461 98.531168 -145.297945 148.501700 -2.654659 -1.528271 1.512841 271.967423 -35.618392 323.683320 -2.018838 -1.152015 1.108059 -0.000005 -0.000001 0.000004 -9.108310 -0.517945 2.260358 -120.020521 11.592415 19.999431 -3.700030 -0.000037 0.001737 56.572432 170.172729 -161.873516 -2.850035 -0.000034 -0.000013 54.698296 174.319938 -169.044026 -2.772166 0.000001 -0.000027 0.000000 0.000002 0.000001 -9.532517 -0.000084 0.000521 -130.235793 8.005759 17.356028 -3.700016 -0.000010 0.004241 48.021479 173.646044 -165.944282 -2.949999 -0.000047 -0.001515 47.760883 175.092487 -168.954838 -2.946627 0.000002 -0.000164 -0.000001 0.000000 0.000001 -9.103619 -0.043079 -1.864577 -133.122818 6.845765 15.642696 -3.379274 -0.000066 -0.000515 -129.913094 3.158013 6.782598 -2.889716 -0.000051 0.000892 232.247633 1.900579 3.954046 -2.638804 -0.000015 0.000944 -0.000001 -0.000000 -0.000002 -8.076690 -0.486789 -3.805759 -129.199326 5.051812 10.391074 -3.599993 -0.000182 -0.003239 -126.582885 -3.187480 -6.996909 -2.099967 -0.000175 -0.005291 238.008351 -5.373574 -10.076484 -2.115777 -0.000031 -0.003667 -0.000002 -0.000000 -0.000003 4.570446 11.014691 -2.160851 -0.000018 0.000010 -0.000021 10.592517 -0.524542 -2.232394 63.809540 -63.022996 41.781575 27.841696 -0.000063 -0.000077 250.308483 -70.849928 269.425964 28.328835 -0.000014 0.000016 0.000019 -0.000090 -0.000001 2.466143 -1.576176 2.681845 126.676909 149.550830 -164.592123 3.217804 -1.872010 1.916530 268.255871 44.185904 40.701073 2.656003 -1.528818 1.514607 221.556843 49.494115 81.031575 2.020898 -1.154068 1.115153 0.000002 0.000002 0.000006 9.109257 -0.517728 2.260109 236.643433 -10.342044 -19.050265 3.699932 0.000271 -0.000103 234.175331 -9.958222 -19.354839 2.849960 0.000337 0.000585 230.175217 -6.887043 -14.646051 2.774890 -0.000045 -0.000038 0.000003 -0.000001 0.000002 9.533353 0.000366 0.000273 230.156502 -7.952938 -16.886094 3.699939 0.000329 -0.000011 228.713911 -8.085253 -17.742093 2.949968 0.000313 0.000128 226.621128 -7.335820 -16.928687 2.952868 -0.000013 0.000066 0.000000 0.000000 -0.000001 9.104490 -0.042698 -1.864876 228.196388 -6.070798 -13.525190 3.149943 0.000346 0.000274 230.043831 -9.432110 -20.048275 2.949922 0.000337 0.000263 231.216329 -9.283407 -19.231166 2.644324 0.000048 0.000055 0.000001 -0.000001 0.000001 8.077741 -0.486537 -3.806054 227.069803 -6.437981 -15.602935 3.599905 0.000346 0.014940 224.564189 -4.698402 -12.325153 2.099969 0.000361 0.007922 222.301197 -3.182484 -9.159643 2.125489 -0.000010 0.007526 0.000000 0.000001 -0.000000 -8.207786 -6.751667 -1.599560 -0.077001 -0.000003 0.000080 -0.000002 -44.370110 0.345938 0.153719 -0.000000 -0.000000 0.000000 -44.423679 -3.043532 -0.076700 0.000000 -0.000002 -0.000006 -8.728667 10.710559 -0.000009 -0.000000 -0.000000 -0.000001 -0.000679 9.278123 0.000000 -0.000000 -0.000000 8.207792 -6.751710 -1.599556 -0.074518 -0.000003 0.000081 -0.000002 -44.370014 0.346960 0.148822 0.000002 0.000000 -0.000001 -44.423664 -3.044403 -0.074314 0.000000 -0.000002 -0.000004 -8.728671 10.710558 0.000007 -0.000000 -0.000000 0.000000 -0.000680 9.278137 -0.000000 0.000000 -0.000001 
0.000006 104.270477 1.554256 0.000010 0.000003 -0.000113 -0.000005 10.181587 0.131522 0.000001 -0.000003 0.000084 -0.000000 9.893967 -1.470711 0.000001 0.000000 -0.000000 -0.000000 9.220802 -1.370642 0.000000 -0.000000 -0.000000 0.000001 16.740433 -2.049030 0.000000 -0.000000 -0.000000 0.000000 9.617859 1.685014 0.000000 0.000000 0.000000 0.000002 22.037384 7.501101 0.000000 -0.000000 0.000000 -4.569968 11.014880 -2.160881 0.000008 0.000001 -0.000038 -10.592800 -0.524827 -2.231765 66.332878 63.127497 -43.750350 -27.841513 -0.000021 0.000576 244.574485 71.692684 -262.346309 -28.328835 0.000022 0.000021 -0.000324 -0.000045 0.000006 -2.464738 -1.574171 2.681985 126.902702 -167.585549 165.313664 -3.215001 -1.873051 1.924474 100.717942 -148.238587 150.469627 -2.654639 -1.528296 1.512847 272.699920 -35.024059 324.312709 -2.018831 -1.152015 1.108073 -0.000005 0.000002 0.000007 -9.108309 -0.517952 2.260330 -113.365663 11.768510 17.864969 -3.700022 -0.000081 0.001710 63.328708 169.885574 -163.692997 -2.850031 -0.000076 -0.000029 63.547930 174.192705 -170.638247 -2.772171 -0.000016 -0.000026 -0.000001 -0.000001 0.000000 -9.532513 -0.000121 0.000502 -123.082099 8.152434 15.151719 -3.700019 -0.000051 0.004242 56.352438 172.778132 -166.686109 -2.949999 -0.000080 -0.001531 58.358748 174.449547 -170.086723 -2.946621 -0.000002 -0.000154 0.000002 0.000001 0.000002 -9.103618 -0.043136 -1.864610 -122.180746 7.021218 12.623376 -3.379277 -0.000100 -0.000556 -118.531226 2.914667 4.923982 -2.889727 -0.000127 0.000846 244.634345 1.254837 2.046514 -2.638808 -0.000001 0.000933 -0.000001 0.000001 -0.000000 -8.076670 -0.486814 -3.805790 -119.586531 4.758055 7.976531 -3.599993 -0.000198 -0.003267 -116.398568 -3.999929 -6.991230 -2.099957 -0.000226 -0.005317 247.177060 -6.018680 -9.387097 -2.115772 -0.000056 -0.003692 0.000000 0.000002 -0.000005 4.570446 11.014691 -2.160851 -0.000018 0.000010 -0.000021 10.592518 -0.524527 -2.232393 66.456873 -62.126137 43.068533 27.841703 -0.000067 -0.000089 249.308489 -72.043381 267.102798 28.328838 -0.000028 0.000012 0.000021 -0.000087 0.000000 2.466153 -1.576164 2.681852 131.299499 167.530484 -166.841222 3.217848 -1.871986 1.916543 276.919720 33.982797 32.189035 2.656013 -1.528820 1.514613 227.082630 45.352869 73.353998 2.020883 -1.154067 1.115152 -0.000001 0.000002 0.000002 9.109264 -0.517788 2.260087 243.394010 -11.791055 -18.973656 3.699907 0.000277 -0.000109 240.770315 -13.650631 -23.090928 2.849956 0.000308 0.000583 237.002319 -10.605530 -19.398953 2.774893 -0.000044 -0.000030 0.000002 0.000002 0.000001 9.533352 0.000335 0.000268 237.010324 -9.218487 -16.877742 3.699927 0.000296 0.000011 234.941159 -11.041439 -21.059437 2.949949 0.000291 0.000172 233.740056 -9.486243 -18.604199 2.952872 -0.000029 0.000061 -0.000002 0.000002 0.000001 9.104499 -0.042745 -1.864869 235.533090 -6.723344 -12.734603 3.149937 0.000330 0.000291 233.462122 -10.048491 -19.806282 2.949916 0.000325 0.000284 234.244015 -9.569013 -18.563481 2.644326 0.000046 0.000055 0.000003 0.000000 -0.000000 8.077727 -0.486584 -3.806039 235.905281 -6.906584 -13.713948 3.599929 0.000340 0.014965 232.042672 -3.779707 -8.515075 2.099988 0.000315 0.007935 230.293871 -1.794281 -4.641427 2.125499 -0.000013 0.007523 0.000001 0.000001 0.000002 -8.207786 -6.751667 -1.599560 -0.077001 -0.000003 0.000080 -0.000002 -44.370110 0.345938 0.153719 -0.000000 -0.000000 0.000000 -44.423679 -3.043532 -0.076700 0.000000 -0.000002 -0.000006 -8.728667 10.710559 -0.000009 -0.000000 -0.000000 -0.000001 -0.000679 9.278123 0.000000 -0.000000 -0.000000 8.207792 -6.751710 -1.599556 -0.074518 -0.000003 0.000081 -0.000002 -44.370014 0.346960 0.148822 0.000002 0.000000 -0.000001 -44.423664 -3.044403 -0.074314 0.000000 -0.000002 -0.000004 -8.728671 10.710558 0.000007 -0.000000 -0.000000 0.000000 -0.000680 9.278137 -0.000000 0.000000 -0.000001 
0.000006 104.270477 1.554256 0.000010 0.000003 -0.000113 -0.000005 10.181587 0.131522 0.000001 -0.000003 0.000084 -0.000000 9.893967 -1.470711 0.000001 0.000000 -0.000000 -0.000000 9.220802 -1.370642 0.000000 -0.000000 -0.000000 0.000001 16.740433 -2.049030 0.000000 -0.000000 -0.000000 0.000000 9.617859 1.685014 0.000000 0.000000 0.000000 0.000002 22.037384 7.501101 0.000000 -0.000000 0.000000 -4.569968 11.014880 -2.160881 0.000008 0.000001 -0.000038 -10.592800 -0.524836 -2.231755 67.167684 63.334684 -44.544803 -27.841497 -0.000000 0.000569 238.632166 71.591181 -255.817550 -28.328829 0.000005 0.000025 -0.000325 -0.000045 0.000007 -2.464764 -1.574179 2.681982 127.707831 -171.756458 165.700772 -3.215003 -1.873060 1.924474 93.746990 -146.331844 146.091285 -2.654567 -1.528278 1.512918 246.612887 -44.450608 302.853620 -2.018825 -1.152004 1.108068 -0.000001 -0.000002 -0.000005 -9.108311 -0.517935 2.260351 -118.735435 10.554180 17.779331 -3.700010 -0.000051 0.001709 56.986365 172.123950 -165.572760 -2.850034 -0.000057 -0.000017 58.027375 176.789229 -174.215600 -2.772161 -0.000014 -0.000029 -0.000005 -0.000002 -0.000001 -9.532532 -0.000111 0.000485 -121.837693 7.783481 14.117042 -3.700022 -0.000081 0.004234 58.087296 173.972841 -169.293082 -2.950003 -0.000107 -0.001557 62.254278 176.396411 -174.045269 -2.946626 0.000000 -0.000148 -0.000002 0.000001 0.000000 -9.103619 -0.043155 -1.864633 -117.751082 6.444110 10.601647 -3.379265 -0.000144 -0.000583 -114.287117 1.018957 1.600449 -2.889715 -0.000159 0.000807 249.337230 -1.038981 -1.441987 -2.638805 -0.000013 0.000938 0.000001 0.000002 0.000001 -8.076681 -0.486833 -3.805824 -110.168533 4.901119 6.859906 -3.599989 -0.000239 -0.003336 -103.516742 -5.252661 -7.096094 -2.099954 -0.000234 -0.005346 261.210859 -9.006931 -10.767123 -2.115771 -0.000046 -0.003680 -0.000000 -0.000000 -0.000002 4.570446 11.014691 -2.160851 -0.000018 0.000010 -0.000021 10.592516 -0.524534 -2.232398 67.229088 -61.896909 43.466275 27.841717 -0.000074 -0.000086 239.071565 -72.089109 255.807332 28.328831 -0.000012 0.000038 0.000024 -0.000090 0.000000 2.466168 -1.576159 2.681872 118.423445 156.126595 -161.143314 3.217814 -1.872000 1.916544 275.448169 40.238738 34.845474 2.656038 -1.528806 1.514603 266.315086 42.098865 42.007316 2.020887 -1.154079 1.115164 0.000002 0.000001 0.000004 9.109226 -0.517744 2.260080 231.977594 -12.470395 -25.250895 3.699907 0.000290 -0.000086 237.816532 -13.603394 -24.393215 2.849947 0.000262 0.000597 244.218113 -11.525995 -18.271972 2.774885 -0.000063 -0.000035 -0.000003 0.000001 0.000001 9.533352 0.000341 0.000271 234.517277 -9.841215 -18.962094 3.699948 0.000281 0.000009 242.658917 -11.055026 -18.063887 2.949968 0.000219 0.000179 249.407336 -10.322978 -14.865572 2.952873 -0.000044 0.000052 0.000003 -0.000002 -0.000000 9.104469 -0.042732 -1.864850 234.596890 -9.640284 -18.561539 3.149984 0.000309 0.000262 240.853999 -5.057067 -8.602003 2.949963 0.000249 0.000284 249.401680 -3.569665 -5.155264 2.644318 0.000032 0.000052 -0.000002 -0.000001 -0.000000 8.077717 -0.486567 -3.806036 231.385171 -9.909723 -21.153355 3.599951 0.000306 0.014988 239.609538 -1.294462 -2.972349 2.100012 0.000272 0.007927 247.033052 1.222417 1.223250 2.125502 -0.000030 0.007507 0.000001 0.000002 0.000000 -8.207786 -6.751667 -1.599560 -0.077001 -0.000003 0.000080 -0.000002 -44.370110 0.345938 0.153719 -0.000000 -0.000000 0.000000 -44.423679 -3.043532 -0.076700 0.000000 -0.000002 -0.000006 -8.728667 10.710559 -0.000009 -0.000000 -0.000000 -0.000001 -0.000679 9.278123 0.000000 -0.000000 -0.000000 8.207792 -6.751710 -1.599556 -0.074518 -0.000003 0.000081 -0.000002 -44.370014 0.346960 0.148822 0.000002 0.000000 -0.000001 -44.423664 -3.044403 -0.074314 0.000000 -0.000002 -0.000004 -8.728671 10.710558 0.000007 -0.000000 -0.000000 0.000000 -0.000680 9.278137 -0.000000 0.000000 -0.000001 
